<svg width="26" height="26" viewBox="0 0 26 26" fill="none" xmlns="http://www.w3.org/2000/svg">
<path d="M1 1.5H5.36364L8.28727 16.1652C8.38703 16.6695 8.66026 17.1224 9.05914 17.4448C9.45802 17.7672 9.95713 17.9384 10.4691 17.9286H21.0727C21.5847 17.9384 22.0838 17.7672 22.4827 17.4448C22.8816 17.1224 23.1548 16.6695 23.2545 16.1652L25 6.97619H6.45455M10.8182 23.4048C10.8182 24.0096 10.3298 24.5 9.72727 24.5C9.12478 24.5 8.63636 24.0096 8.63636 23.4048C8.63636 22.7999 9.12478 22.3095 9.72727 22.3095C10.3298 22.3095 10.8182 22.7999 10.8182 23.4048ZM22.8182 23.4048C22.8182 24.0096 22.3298 24.5 21.7273 24.5C21.1248 24.5 20.6364 24.0096 20.6364 23.4048C20.6364 22.7999 21.1248 22.3095 21.7273 22.3095C22.3298 22.3095 22.8182 22.7999 22.8182 23.4048Z" stroke="white" stroke-width="2" stroke-linecap="round" stroke-linejoin="round"/>
</svg>
