<svg width="261" height="349" viewBox="0 0 261 349" fill="none" xmlns="http://www.w3.org/2000/svg">
<g filter="url(#filter0_d_715_1897)">
<path d="M143 139H174.5C191.897 139 206 153.103 206 170.5C206 187.897 191.897 202 174.5 202C157.103 202 143 187.897 143 170.5V139Z" fill="#4642ED" fill-opacity="0.67" shape-rendering="crispEdges"/>
</g>
<path d="M157.54 160.877L175 170.938L192.46 160.877M175 191V170.918M193 178.887V162.949C192.999 162.251 192.814 161.564 192.463 160.959C192.112 160.354 191.607 159.852 191 159.503L177 151.534C176.392 151.184 175.702 151 175 151C174.298 151 173.608 151.184 173 151.534L159 159.503C158.393 159.852 157.888 160.354 157.537 160.959C157.186 161.564 157.001 162.251 157 162.949V178.887C157.001 179.586 157.186 180.272 157.537 180.877C157.888 181.482 158.393 181.984 159 182.334L173 190.303C173.608 190.652 174.298 190.837 175 190.837C175.702 190.837 176.392 190.652 177 190.303L191 182.334C191.607 181.984 192.112 181.482 192.463 180.877C192.814 180.272 192.999 179.586 193 178.887Z" stroke="white" stroke-width="2" stroke-linecap="round" stroke-linejoin="round"/>
<circle cx="162.786" cy="171.5" r="1.5" fill="white"/>
<circle cx="165.786" cy="176.5" r="1.5" fill="white"/>
<circle cx="168.786" cy="181.5" r="1.5" fill="white"/>
<circle cx="181.37" cy="174.085" r="1.5" transform="rotate(-34.3298 181.37 174.085)" fill="white"/>
<circle cx="188.37" cy="170.085" r="1.5" transform="rotate(-34.3298 188.37 170.085)" fill="white"/>
<circle cx="181.37" cy="182.085" r="1.5" transform="rotate(-34.3298 181.37 182.085)" fill="white"/>
<circle cx="175.37" cy="160.085" r="1.5" transform="rotate(-34.3298 175.37 160.085)" fill="white"/>
<circle cx="188.37" cy="178.085" r="1.5" transform="rotate(-34.3298 188.37 178.085)" fill="white"/>
<defs>
<filter id="filter0_d_715_1897" x="0" y="0" width="349" height="349" filterUnits="userSpaceOnUse" color-interpolation-filters="sRGB">
<feFlood flood-opacity="0" result="BackgroundImageFix"/>
<feColorMatrix in="SourceAlpha" type="matrix" values="0 0 0 0 0 0 0 0 0 0 0 0 0 0 0 0 0 0 127 0" result="hardAlpha"/>
<feOffset dy="4"/>
<feGaussianBlur stdDeviation="71.5"/>
<feComposite in2="hardAlpha" operator="out"/>
<feColorMatrix type="matrix" values="0 0 0 0 0 0 0 0 0 0 0 0 0 0 0 0 0 0 0.25 0"/>
<feBlend mode="normal" in2="BackgroundImageFix" result="effect1_dropShadow_715_1897"/>
<feBlend mode="normal" in="SourceGraphic" in2="effect1_dropShadow_715_1897" result="shape"/>
</filter>
</defs>
</svg>
